<?xml version="1.0" encoding="UTF-8"?>
<svg width="32px" height="32px" viewBox="0 0 32 32" version="1.1" xmlns="http://www.w3.org/2000/svg" xmlns:xlink="http://www.w3.org/1999/xlink">
    <title>左侧栏正常</title>
    <g id="左侧栏正常" stroke="none" stroke-width="1" fill="none" fill-rule="evenodd">
        <g id="logo" transform="translate(2.484142, 0.000000)" fill-rule="nonzero">
            <g id="黑反白_大">
                <path d="M9.21366066,23.4906355 L0.900179817,15.1771547 C0.328140012,14.6051594 0.00676765329,13.8293405 0.00676765329,13.0203856 C0.00676765329,12.2114306 0.328140012,11.4356118 0.900179817,10.8636165 L2.97283582,8.79096047 C3.0388229,8.7252898 3.1454739,8.7252898 3.21146097,8.79096047 L9.22920329,14.8114456 C10.3817721,15.9628081 11.02938,17.5251149 11.02938,19.1542405 C11.02938,20.7833661 10.3817721,22.3456729 9.22920329,23.4970354 L9.22920329,23.4970354 C9.22632987,23.4985388 9.22293854,23.4986939 9.21993985,23.4974592 C9.21694116,23.4962244 9.21464236,23.4937263 9.21366066,23.4906355 L9.21366066,23.4906355 Z" id="路径" fill="#C2C2C2"></path>
                <path d="M12.109162,0.302853559 L11.8211661,0.0157719594 C11.8116661,0.00570544915 11.7984367,0 11.7845952,0 C11.7707538,0 11.7575244,0.00570544915 11.7480243,0.0157719594 L3.48025712,8.28353917 L3.47020012,8.29542472 L1.0976627,10.6670479 C1.03274935,10.7228185 0.961436082,10.7676179 0.900179817,10.8288741 C-0.300059939,12.0298277 -0.300059939,13.9762011 0.900179817,15.1771547 L5.26308871,19.5400635 C4.06234427,18.339319 4.06234427,16.3925276 5.26308871,15.191783 L7.43722898,13.0176427 L7.43722898,13.0176427 L11.1628899,9.29198186 C11.1668217,9.28763725 11.1704856,9.28305742 11.1738611,9.27826777 L12.1055049,8.34662398 C14.3267951,6.12601592 14.3284321,2.52548052 12.109162,0.302853559 L12.109162,0.302853559 Z" id="路径" fill="#FFFFFF"></path>
                <path d="M17.9431355,8.50936451 L26.2566164,16.8228453 C26.8286562,17.3948406 27.1500285,18.1706595 27.1500285,18.9796144 C27.1500285,19.7885694 26.8286562,20.5643882 26.2566164,21.1363835 L24.1839604,23.2090395 C24.1179733,23.2747102 24.0113223,23.2747102 23.9453352,23.2090395 L17.9275929,17.1885544 C15.5304065,14.7913529 15.5304065,10.9047374 17.9275929,8.50753596 L17.9275929,8.50753596 C17.9298867,8.5056925 17.932825,8.50484782 17.9357476,8.50511647 C17.9386702,8.5055355 17.9413322,8.50703903 17.9431355,8.50936451 Z" id="路径" fill="#C2C2C2"></path>
                <path d="M15.0476342,31.6971464 L15.3356301,31.984228 C15.3451301,31.9942946 15.3583595,32 15.372201,32 C15.3860424,32 15.3992718,31.9942946 15.4087719,31.984228 L23.6765391,23.7164608 L23.6865961,23.7045753 L26.0591335,21.3329521 C26.1240469,21.2771815 26.1953601,21.2323821 26.2566164,21.1711259 C27.4568561,19.9701723 27.4568561,18.0237989 26.2566164,16.8228453 L21.8982789,12.4599365 C23.0990233,13.660681 23.0990233,15.6074724 21.8982789,16.808217 L19.7241386,18.9823573 L19.7241386,18.9823573 L15.9984777,22.7080181 C15.9945458,22.7123628 15.990882,22.7169426 15.9875064,22.7217322 L15.0558626,23.653376 C12.8333085,25.8727217 12.8296253,29.4732582 15.0476342,31.6971464 L15.0476342,31.6971464 Z" id="路径" fill="#FFFFFF"></path>
            </g>
        </g>
    </g>
</svg>